<svg width="231" height="179" viewBox="0 0 231 179" fill="none" xmlns="http://www.w3.org/2000/svg">
<g filter="url(#filter0_b)">
<path d="M209.55 79.5404C207.319 76.9301 204.63 74.7547 201.687 72.9911C195.233 69.0594 187.654 67.4312 180.097 68.2797C179.87 67.7068 179.528 67.1153 179.226 66.561C178.931 65.9975 178.508 64.8005 178.033 64.0087L176.736 62.1549C176.112 61.0836 175.361 60.1269 174.529 59.1785C174.489 59.0341 174.408 58.8525 174.274 58.6522L173.999 58.4873C171.806 55.8994 169.269 53.6821 166.384 51.8328L165.871 51.5254C164.565 50.7427 163.211 50.0514 161.785 49.457L161.226 49.1216C159.718 48.4647 158.127 47.955 156.495 47.6101C135.677 42.8681 118.139 58.0116 113.5 77.6558C111.422 87.8692 111.637 98.393 114.11 108.421C117.938 122.623 123.229 136.31 129.93 149.321L130.692 150.797L132.28 150.793C146.921 150.509 161.449 148.701 175.689 145.389C185.756 142.878 195.18 138.068 203.182 131.404C218.271 118.023 223.405 95.4452 209.55 79.5404Z" fill="url(#paint0_linear)"/>
</g>
<g opacity="0.5" filter="url(#filter1_f)">
<path d="M178.952 86.5567C177.544 84.9095 175.847 83.5368 173.99 82.4238C169.917 79.9428 165.135 78.9153 160.366 79.4508C160.223 79.0892 160.007 78.716 159.817 78.3662C159.63 78.0106 159.363 77.2552 159.063 76.7555L158.245 75.5857C157.851 74.9097 157.377 74.306 156.852 73.7075C156.827 73.6164 156.776 73.5018 156.692 73.3754L156.518 73.2713C155.134 71.6383 153.533 70.2391 151.712 69.0721L151.389 68.8781C150.565 68.3842 149.71 67.948 148.811 67.5728L148.457 67.3612C147.506 66.9467 146.502 66.625 145.472 66.4074C132.335 63.415 121.268 72.9712 118.341 85.3675C117.029 91.8125 117.165 98.4535 118.726 104.781C121.141 113.744 124.48 122.381 128.708 130.591L129.189 131.523L130.192 131.52C139.43 131.341 148.598 130.2 157.584 128.11C163.937 126.525 169.884 123.49 174.933 119.285C184.455 110.841 187.695 96.5933 178.952 86.5567Z" fill="#EE2965"/>
</g>
<g filter="url(#filter2_b)">
<path d="M196.474 31.9059C195.932 31.3744 195.298 30.9476 194.616 30.6163C193.119 29.8757 191.419 29.6641 189.771 29.9973C189.71 29.8755 189.623 29.7519 189.546 29.6357C189.47 29.5174 189.354 29.262 189.234 29.0969L188.912 28.7139C188.754 28.4902 188.57 28.2941 188.369 28.1014C188.357 28.0704 188.336 28.032 188.302 27.9905L188.239 27.9595C187.705 27.4322 187.104 26.9932 186.433 26.642L186.314 26.5842C186.011 26.4372 185.7 26.3113 185.374 26.208L185.245 26.145C184.9 26.0296 184.54 25.9482 184.174 25.9039C179.498 25.2631 175.931 28.9367 175.292 33.3514C175.032 35.6402 175.284 37.9529 176.024 40.1126C177.142 43.1653 178.573 46.076 180.301 48.8106L180.497 49.1209L180.847 49.0892C184.064 48.7431 187.228 48.0636 190.298 47.0588C192.466 46.3108 194.447 45.0693 196.08 43.4473C199.142 40.2092 199.833 35.1391 196.474 31.9059Z" fill="url(#paint1_linear)"/>
</g>
<g filter="url(#filter3_b)">
<mask id="path-4-outside-1" maskUnits="userSpaceOnUse" x="-1.15868" y="-1.20294" width="185.164" height="177.77" fill="black">
<rect fill="white" x="-1.15868" y="-1.20294" width="185.164" height="177.77"/>
<path d="M123.283 7.98955C118.322 7.22002 113.272 7.36604 108.337 8.20805C97.4503 9.98484 87.5286 15.3753 80.0016 23.4845C79.2031 23.066 78.259 22.7367 77.396 22.4096C76.5302 22.067 74.918 21.1442 73.6351 20.7199L70.4297 19.9001C68.7146 19.3084 66.9701 18.9629 65.1441 18.7036C64.9616 18.582 64.6982 18.4582 64.3593 18.3632L63.8978 18.442C58.9995 17.6618 54.0772 17.6172 49.1233 18.3096L48.2628 18.4564C46.0726 18.83 43.9163 19.3506 41.7745 20.0456L40.8358 20.2057C38.5426 20.9104 36.2997 21.8558 34.1684 23.0233C6.65717 37.5321 1.80351 70.9179 15.4934 97.0403C22.9785 110.306 33.2917 121.738 45.6219 130.479C63.4434 142.552 82.3871 152.665 102.238 160.694L104.492 161.604L106.241 160.092C122.123 145.887 136.424 130.102 148.966 112.93C157.669 100.601 163.464 86.3398 165.913 71.3795C169.752 42.2666 153.799 12.4304 123.283 7.98955Z"/>
</mask>
<path d="M123.283 7.98955C118.322 7.22002 113.272 7.36604 108.337 8.20805C97.4503 9.98484 87.5286 15.3753 80.0016 23.4845C79.2031 23.066 78.259 22.7367 77.396 22.4096C76.5302 22.067 74.918 21.1442 73.6351 20.7199L70.4297 19.9001C68.7146 19.3084 66.9701 18.9629 65.1441 18.7036C64.9616 18.582 64.6982 18.4582 64.3593 18.3632L63.8978 18.442C58.9995 17.6618 54.0772 17.6172 49.1233 18.3096L48.2628 18.4564C46.0726 18.83 43.9163 19.3506 41.7745 20.0456L40.8358 20.2057C38.5426 20.9104 36.2997 21.8558 34.1684 23.0233C6.65717 37.5321 1.80351 70.9179 15.4934 97.0403C22.9785 110.306 33.2917 121.738 45.6219 130.479C63.4434 142.552 82.3871 152.665 102.238 160.694L104.492 161.604L106.241 160.092C122.123 145.887 136.424 130.102 148.966 112.93C157.669 100.601 163.464 86.3398 165.913 71.3795C169.752 42.2666 153.799 12.4304 123.283 7.98955Z" fill="#FF749F" fill-opacity="0.35"/>
<path d="M108.337 8.20805L108.503 9.1942L108.51 9.19299L108.337 8.20805ZM80.0016 23.4845L79.5396 24.3687C79.9402 24.5787 80.4308 24.4954 80.7371 24.1654L80.0016 23.4845ZM77.396 22.4096L77.0308 23.3383C77.0354 23.3401 77.04 23.3418 77.0445 23.3436L77.396 22.4096ZM73.6351 20.7199L73.9459 19.7715C73.9239 19.7643 73.9017 19.7578 73.8793 19.7521L73.6351 20.7199ZM70.4297 19.9001L70.1067 20.8444C70.1326 20.8533 70.1589 20.8612 70.1855 20.868L70.4297 19.9001ZM65.1441 18.7036L64.5911 19.5339C64.7164 19.6174 64.8587 19.6717 65.0076 19.6929L65.1441 18.7036ZM64.3593 18.3632L64.6255 17.4013C64.4825 17.3612 64.3325 17.3534 64.1864 17.3783L64.3593 18.3632ZM63.8978 18.442L63.7445 19.4287C63.8527 19.4459 63.9629 19.4453 64.0707 19.4269L63.8978 18.442ZM49.1233 18.3096L48.9801 17.32C48.9702 17.3214 48.9602 17.323 48.9504 17.3246L49.1233 18.3096ZM48.2628 18.4564L48.4358 19.4413L48.2628 18.4564ZM41.7745 20.0456L41.9474 21.0305C41.995 21.0224 42.0419 21.0109 42.0877 20.996L41.7745 20.0456ZM40.8358 20.2057L40.6629 19.2208C40.6205 19.228 40.5786 19.238 40.5374 19.2506L40.8358 20.2057ZM34.1684 23.0233L34.6389 23.9073C34.6436 23.9048 34.6482 23.9023 34.6528 23.8998L34.1684 23.0233ZM15.4934 97.0403L14.6071 97.5004C14.6119 97.5096 14.6169 97.5187 14.622 97.5277L15.4934 97.0403ZM45.6219 130.479L45.045 131.293C45.0508 131.297 45.0567 131.301 45.0626 131.305L45.6219 130.479ZM102.238 160.694L101.866 161.62L101.866 161.62L102.238 160.694ZM104.492 161.604L104.121 162.53C104.469 162.671 104.866 162.605 105.149 162.36L104.492 161.604ZM106.241 160.092L106.898 160.848C106.902 160.845 106.906 160.841 106.91 160.837L106.241 160.092ZM148.966 112.93L149.775 113.521C149.779 113.517 149.782 113.512 149.785 113.508L148.966 112.93ZM165.913 71.3795L166.901 71.545C166.902 71.5348 166.904 71.5246 166.905 71.5144L165.913 71.3795ZM123.433 7.00222C118.351 6.21394 113.191 6.36548 108.164 7.22312L108.51 9.19299C113.354 8.3666 118.294 8.2261 123.134 8.97687L123.433 7.00222ZM108.171 7.22194C97.0608 9.03522 86.9402 14.5359 79.2661 22.8035L80.7371 24.1654C88.117 16.2148 97.8398 10.9345 108.503 9.19417L108.171 7.22194ZM80.4636 22.6002C79.5954 22.1453 78.5689 21.787 77.7474 21.4757L77.0445 23.3436C77.9492 23.6864 78.8107 23.9868 79.5396 24.3687L80.4636 22.6002ZM77.7611 21.481C77.3753 21.3283 76.817 21.0427 76.1068 20.6974C75.4356 20.3711 74.6578 20.007 73.9459 19.7715L73.3243 21.6683C73.8952 21.8571 74.565 22.1666 75.2371 22.4933C75.8702 22.8012 76.5508 23.1483 77.0308 23.3383L77.7611 21.481ZM73.8793 19.7521L70.6739 18.9323L70.1855 20.868L73.3909 21.6878L73.8793 19.7521ZM70.7527 18.9559C68.9534 18.3352 67.1394 17.9784 65.2806 17.7144L65.0076 19.6929C66.8008 19.9475 68.4757 20.2817 70.1067 20.8444L70.7527 18.9559ZM65.6971 17.8734C65.4119 17.6833 65.0478 17.5196 64.6255 17.4013L64.093 19.3252C64.3486 19.3968 64.5114 19.4808 64.5911 19.5339L65.6971 17.8734ZM64.1864 17.3783L63.7249 17.457L64.0707 19.4269L64.5322 19.3482L64.1864 17.3783ZM64.0511 17.4553C59.0537 16.6593 54.0315 16.614 48.9801 17.32L49.2664 19.2991C54.1229 18.6204 58.9453 18.6642 63.7445 19.4287L64.0511 17.4553ZM48.9504 17.3246L48.0899 17.4714L48.4358 19.4413L49.2962 19.2945L48.9504 17.3246ZM48.0899 17.4714C45.8548 17.8527 43.6514 18.3845 41.4612 19.0952L42.0877 20.996C44.1812 20.3167 46.2905 19.8073 48.4358 19.4413L48.0899 17.4714ZM41.6016 19.0606L40.6629 19.2208L41.0087 21.1906L41.9474 21.0305L41.6016 19.0606ZM40.5374 19.2506C38.1797 19.9752 35.8745 20.9469 33.6839 22.1468L34.6528 23.8998C36.725 22.7647 38.9056 21.8457 41.1342 21.1608L40.5374 19.2506ZM33.6978 22.1393C5.5676 36.9746 0.738062 71.0361 14.6071 97.5004L16.3797 96.5803C2.86895 70.7996 7.74674 38.0896 34.6389 23.9073L33.6978 22.1393ZM14.622 97.5277C22.1795 110.922 32.5932 122.466 45.045 131.293L46.1989 129.666C33.9903 121.011 23.7774 109.69 16.3648 96.5529L14.622 97.5277ZM45.0626 131.305C62.9424 143.418 81.9488 153.564 101.866 161.62L102.61 159.768C82.8254 151.766 63.9445 141.687 46.1813 129.653L45.0626 131.305ZM101.866 161.62L104.121 162.53L104.864 160.678L102.609 159.768L101.866 161.62ZM105.149 162.36L106.898 160.848L105.584 159.335L103.835 160.847L105.149 162.36ZM106.91 160.837C122.845 146.586 137.192 130.75 149.775 113.521L148.156 112.339C135.655 129.455 121.402 145.187 105.571 159.346L106.91 160.837ZM149.785 113.508C158.576 101.054 164.427 86.652 166.901 71.545L164.925 71.214C162.5 86.0276 156.763 100.147 148.147 112.352L149.785 113.508ZM166.905 71.5144C170.794 42.0294 154.639 11.5436 123.423 7.00082L123.143 8.97827C152.959 13.3173 168.711 42.5039 164.921 71.2447L166.905 71.5144Z" fill="url(#paint2_linear)" mask="url(#path-4-outside-1)"/>
</g>
<g filter="url(#filter4_bd)">
<path d="M143.985 53.5854C144.32 56.9131 142.029 59.955 138.838 60.5949C137.089 60.7282 135.313 60.239 133.988 59.1008C132.664 57.9626 131.825 56.3302 131.664 54.5165L131.622 54.2744C130.676 48.8166 126.468 44.4694 121.131 43.4616C117.645 42.8657 115.303 39.5713 115.829 36.1027C116.433 32.6206 119.653 30.2869 123.05 30.8338C133.807 32.9153 142.163 41.6765 143.824 52.6562L143.985 53.5854Z" fill="url(#paint3_linear)"/>
<path d="M131.863 54.4989L131.862 54.4906L131.861 54.4824L131.819 54.2404C130.859 48.7029 126.589 44.2888 121.168 43.2651L121.168 43.265L121.164 43.2645C117.788 42.6873 115.517 39.4961 116.026 36.1349C116.613 32.7592 119.732 30.5039 123.015 31.0308C133.687 33.097 141.978 41.7899 143.626 52.6861L143.626 52.6861L143.627 52.6903L143.787 53.6124C144.107 56.8306 141.892 59.7719 138.81 60.3964C137.111 60.5231 135.395 60.0453 134.119 58.9491C132.835 57.8457 132.02 56.2619 131.863 54.4989Z" stroke="url(#paint4_linear)" stroke-width="0.4"/>
</g>
<defs>
<filter id="filter0_b" x="99.0845" y="33.7344" width="131.556" height="130.063" filterUnits="userSpaceOnUse" color-interpolation-filters="sRGB">
<feFlood flood-opacity="0" result="BackgroundImageFix"/>
<feGaussianBlur in="BackgroundImage" stdDeviation="6.5"/>
<feComposite in2="SourceAlpha" operator="in" result="effect1_backgroundBlur"/>
<feBlend mode="normal" in="SourceGraphic" in2="effect1_backgroundBlur" result="shape"/>
</filter>
<filter id="filter1_f" x="99.4473" y="47.8545" width="102.61" height="101.668" filterUnits="userSpaceOnUse" color-interpolation-filters="sRGB">
<feFlood flood-opacity="0" result="BackgroundImageFix"/>
<feBlend mode="normal" in="SourceGraphic" in2="BackgroundImageFix" result="shape"/>
<feGaussianBlur stdDeviation="9" result="effect1_foregroundBlur"/>
</filter>
<filter id="filter2_b" x="162.193" y="12.8311" width="49.5093" height="49.29" filterUnits="userSpaceOnUse" color-interpolation-filters="sRGB">
<feFlood flood-opacity="0" result="BackgroundImageFix"/>
<feGaussianBlur in="BackgroundImage" stdDeviation="6.5"/>
<feComposite in2="SourceAlpha" operator="in" result="effect1_backgroundBlur"/>
<feBlend mode="normal" in="SourceGraphic" in2="effect1_backgroundBlur" result="shape"/>
</filter>
<filter id="filter3_b" x="-16.8882" y="-17.5127" width="208.364" height="204.116" filterUnits="userSpaceOnUse" color-interpolation-filters="sRGB">
<feFlood flood-opacity="0" result="BackgroundImageFix"/>
<feGaussianBlur in="BackgroundImage" stdDeviation="12"/>
<feComposite in2="SourceAlpha" operator="in" result="effect1_backgroundBlur"/>
<feBlend mode="normal" in="SourceGraphic" in2="effect1_backgroundBlur" result="shape"/>
</filter>
<filter id="filter4_bd" x="100.755" y="15.7549" width="58.2627" height="59.8618" filterUnits="userSpaceOnUse" color-interpolation-filters="sRGB">
<feFlood flood-opacity="0" result="BackgroundImageFix"/>
<feGaussianBlur in="BackgroundImage" stdDeviation="7.5"/>
<feComposite in2="SourceAlpha" operator="in" result="effect1_backgroundBlur"/>
<feColorMatrix in="SourceAlpha" type="matrix" values="0 0 0 0 0 0 0 0 0 0 0 0 0 0 0 0 0 0 127 0"/>
<feOffset dx="5" dy="5"/>
<feGaussianBlur stdDeviation="5"/>
<feColorMatrix type="matrix" values="0 0 0 0 1 0 0 0 0 0.321569 0 0 0 0 0.54902 0 0 0 0.5 0"/>
<feBlend mode="normal" in2="effect1_backgroundBlur" result="effect2_dropShadow"/>
<feBlend mode="normal" in="SourceGraphic" in2="effect2_dropShadow" result="shape"/>
</filter>
<linearGradient id="paint0_linear" x1="160.448" y1="116.512" x2="55.484" y2="109.407" gradientUnits="userSpaceOnUse">
<stop stop-color="#FF759F"/>
<stop offset="1" stop-color="#FF196E"/>
</linearGradient>
<linearGradient id="paint1_linear" x1="186.382" y1="40.9966" x2="163.136" y2="41.4711" gradientUnits="userSpaceOnUse">
<stop stop-color="#FF759F"/>
<stop offset="1" stop-color="#FF196E"/>
</linearGradient>
<linearGradient id="paint2_linear" x1="27.9366" y1="39.7172" x2="142.729" y2="145.882" gradientUnits="userSpaceOnUse">
<stop stop-color="white" stop-opacity="0.25"/>
<stop offset="1" stop-color="white" stop-opacity="0"/>
</linearGradient>
<linearGradient id="paint3_linear" x1="138.741" y1="33.7092" x2="111.305" y2="39.182" gradientUnits="userSpaceOnUse">
<stop stop-color="white"/>
<stop offset="1" stop-color="white" stop-opacity="0.2"/>
</linearGradient>
<linearGradient id="paint4_linear" x1="119.346" y1="34.9571" x2="143.593" y2="51.3343" gradientUnits="userSpaceOnUse">
<stop stop-color="white" stop-opacity="0.25"/>
<stop offset="1" stop-color="white" stop-opacity="0"/>
</linearGradient>
</defs>
</svg>
