<svg width="207" height="154" viewBox="0 0 207 154" fill="none" xmlns="http://www.w3.org/2000/svg">
<path d="M-108.823 67.2285C-112.256 40.2633 -93.5354 15.5332 -66.5404 12.3431C-32.9743 8.37641 11.6695 4.02059 46 4.00007C79.1876 3.98024 121.576 7.98749 154.527 11.8247C183.073 15.1488 202.011 42.4037 196.089 70.5252L180.182 146.061C179.208 150.688 175.126 154 170.397 154H-88.9663C-94.0007 154 -98.2502 150.257 -98.8862 145.263L-108.823 67.2285Z" fill="#DDB98A"/>
<path d="M151 152L175.5 151L186 107.5L196 57.5L160.5 57C160.5 57 158 82.5 156 103.5C154.077 123.691 151 152 151 152Z" fill="#D1835C" fill-opacity="0.8"/>
<path d="M-106.839 66.9758C-110.136 41.0777 -92.1614 17.3848 -66.3057 14.3293C-32.7496 10.3638 11.7956 6.02052 46.0012 6.00007C79.0658 5.98031 121.357 9.97558 154.296 13.8112C181.632 16.9945 199.82 43.1029 194.132 70.1131L178.225 145.649C177.446 149.35 174.18 152 170.397 152H-88.9663C-92.9938 152 -96.3934 149.006 -96.9022 145.011L-106.839 66.9758Z" stroke="black" stroke-width="4"/>
<path d="M46 4.00007C11.6695 4.02059 -32.9743 8.37641 -66.5404 12.3431C-93.5354 15.5332 -112.256 40.2633 -108.823 67.2285L-106.387 86.3576C-104.432 101.709 -86.582 109.838 -72.9718 102.472C-53.3044 91.8284 -27.0122 80.2017 -5 79.5C21.4861 78.6557 35.053 94.6688 61.5 93C98.4666 90.6675 110.648 49.2694 147.5 53C153.764 53.6341 160.778 55.7515 167.473 58.3707C181.758 63.9591 199.02 56.6094 202.181 41.5992C204.797 29.1782 196.46 17.1492 183.876 15.4807C151.145 11.1405 90.3555 3.97356 46 4.00007Z" fill="#E47E7B"/>
<path d="M191.163 14.0286L167.911 11C167.911 11 167.995 26.396 166.5 36C165.058 45.2667 161 58 161 58L172 62.4857L186.5 61L198 55L203.5 47.5L205 38.5L203.5 29L199.079 21.0952L191.163 14.0286Z" fill="#C17472"/>
<path d="M199.722 38.993C199.04 44.4735 194.119 54.6977 190.466 54.2429C186.812 53.7881 189.869 43.1934 190.552 37.7129C191.234 32.2323 190.91 21.9886 194.564 22.4435C198.217 22.8983 200.404 33.5124 199.722 38.993Z" fill="#A86261"/>
<path d="M45.9988 2.00007C11.5433 2.02067 -33.199 6.38905 -66.7751 10.3569C-94.9095 13.6817 -114.376 39.4489 -110.807 67.4811L-108.371 86.6103C-106.219 103.506 -86.7306 112.192 -72.0199 104.231C-52.3753 93.5996 -26.4423 82.1845 -4.93628 81.499C7.67055 81.0971 17.2416 84.6263 27.1065 88.2638L27.573 88.4358C37.5896 92.1279 47.9437 95.8594 61.6259 94.996C79.8988 93.843 92.3503 83.4772 103.97 73.8034C104.589 73.2884 105.205 72.7755 105.82 72.266C118.106 62.0798 129.778 53.2162 147.299 54.9898C153.303 55.5976 160.123 57.643 166.745 60.2333C181.942 66.1786 200.672 58.4693 204.138 42.0114C206.989 28.4745 197.9 15.3228 184.139 13.498C151.41 9.1581 90.5016 1.97348 45.9988 2.00007Z" stroke="black" stroke-width="4"/>
<circle cx="13.5" cy="28.5" r="4" fill="#F6F8F9" stroke="black" stroke-width="3"/>
<circle cx="59.5" cy="81.5" r="4" fill="#F6F8F9" stroke="black" stroke-width="3"/>
<circle cx="127.5" cy="28.5" r="4" fill="#F6F8F9" stroke="black" stroke-width="3"/>
<circle cx="176.5" cy="52.5" r="4" fill="#F6F8F9" stroke="black" stroke-width="3"/>
</svg>
