<svg width="1526" height="955" viewBox="0 0 1526 955" fill="none" xmlns="http://www.w3.org/2000/svg">
<g filter="url(#filter0_d)">
<path d="M1333.65 25H325.967H235.444C210.07 25 189.5 45.57 189.5 70.9444C189.5 96.3188 210.07 116.889 235.444 116.889H256.716C280.381 116.889 299.565 136.073 299.565 159.738C299.565 183.402 280.381 202.587 256.716 202.587H231.425C202.092 202.587 178.312 226.366 178.312 255.7V261.224C178.312 287.507 157.006 308.813 130.724 308.813H123.052C101.007 308.813 83.1358 326.684 83.1358 348.729V355.887C83.1358 373.979 97.802 388.645 115.894 388.645C133.985 388.645 148.651 403.311 148.651 421.403V425.629C148.651 446.054 132.093 462.612 111.668 462.612H79.051C60.2452 462.612 45 477.857 45 496.663C45 515.469 60.2452 530.714 79.051 530.714H110.86C142.892 530.714 168.86 556.682 168.86 588.714V852C168.86 884.033 194.827 910 226.86 910H1390.03C1416.93 910 1438.74 888.19 1438.74 861.286V843.7C1438.74 826.508 1452.68 812.572 1469.87 812.572C1487.06 812.572 1501 798.635 1501 781.444V754.897C1501 723.044 1475.18 697.222 1443.33 697.222H1404.34C1380.68 697.222 1361.49 678.038 1361.49 654.373V638.089C1361.49 623.418 1373.39 611.524 1388.06 611.524C1402.73 611.524 1414.62 599.631 1414.62 584.96V347.263H1429.75C1455.85 347.263 1477 326.109 1477 300.015C1477 273.92 1455.85 252.767 1429.75 252.767H1361.95C1340.71 252.767 1323.5 235.552 1323.5 214.317C1323.5 193.082 1340.71 175.867 1361.95 175.867H1448.21C1472.68 175.867 1492.53 156.027 1492.53 131.552C1492.53 107.077 1472.68 87.2367 1448.21 87.2367H1391.81L1391.62 81.1783C1390.63 49.8705 1364.97 25 1333.65 25Z" fill="#FFF5F5"/>
</g>
<defs>
<filter id="filter0_d" x="0" y="0" width="1526" height="955" filterUnits="userSpaceOnUse" color-interpolation-filters="sRGB">
<feFlood flood-opacity="0" result="BackgroundImageFix"/>
<feColorMatrix in="SourceAlpha" type="matrix" values="0 0 0 0 0 0 0 0 0 0 0 0 0 0 0 0 0 0 127 0"/>
<feOffset dx="-10" dy="10"/>
<feGaussianBlur stdDeviation="17.5"/>
<feColorMatrix type="matrix" values="0 0 0 0 0.980392 0 0 0 0 0.337255 0 0 0 0 0.384314 0 0 0 0.5 0"/>
<feBlend mode="normal" in2="BackgroundImageFix" result="effect1_dropShadow"/>
<feBlend mode="normal" in="SourceGraphic" in2="effect1_dropShadow" result="shape"/>
</filter>
</defs>
</svg>
