<svg width="510" height="688" viewBox="0 0 510 688" fill="none" xmlns="http://www.w3.org/2000/svg">
<g filter="url(#filter0_d)">
<path d="M409.231 25H188.33H128.443C113.285 25 100.997 37.2881 100.997 52.4462V57.8136C100.997 70.0074 110.882 79.8924 123.075 79.8924C135.269 79.8924 145.154 89.7773 145.154 101.971V105.489C145.154 119.626 133.663 131.086 119.526 131.086C105.356 131.086 93.837 142.574 93.837 156.745V174.605C93.837 185.617 84.9101 194.543 73.8983 194.543C62.8864 194.543 53.9595 203.47 53.9595 214.482V228.634C53.9595 236.145 60.048 242.234 67.5587 242.234C75.0693 242.234 81.1579 248.322 81.1579 255.833V268.341C81.1579 278.326 73.0637 286.42 63.0789 286.42C53.0942 286.42 45 294.514 45 304.499V306.761C45 317.996 54.1071 327.103 65.3413 327.103H66.3939C78.2094 327.103 87.7878 336.681 87.7878 348.497V585C87.7878 617.033 113.755 643 145.788 643H403.401C435.433 643 461.401 617.033 461.401 585V490.04C461.401 483.523 466.684 478.24 473.2 478.24C479.717 478.24 485 472.957 485 466.441V450.85C485 437.441 474.13 426.571 460.721 426.571C447.312 426.571 436.442 415.701 436.442 402.292V387.856C436.442 380.964 442.029 375.377 448.922 375.377C455.814 375.377 461.401 369.79 461.401 362.898V217.513C474.434 217.513 485 206.947 485 193.913V189.288C485 173.7 472.363 161.063 456.775 161.063H447.572C434.887 161.063 424.603 150.779 424.603 138.094C424.603 125.408 434.887 115.125 447.572 115.125H453.104C467.724 115.125 479.577 103.272 479.577 88.6518C479.577 74.0312 467.724 62.1789 453.104 62.1789H446.41C446.41 41.6455 429.765 25 409.231 25Z" fill="#FFF5F5"/>
</g>
<defs>
<filter id="filter0_d" x="0" y="0" width="510" height="688" filterUnits="userSpaceOnUse" color-interpolation-filters="sRGB">
<feFlood flood-opacity="0" result="BackgroundImageFix"/>
<feColorMatrix in="SourceAlpha" type="matrix" values="0 0 0 0 0 0 0 0 0 0 0 0 0 0 0 0 0 0 127 0"/>
<feOffset dx="-10" dy="10"/>
<feGaussianBlur stdDeviation="17.5"/>
<feColorMatrix type="matrix" values="0 0 0 0 0.980392 0 0 0 0 0.337255 0 0 0 0 0.384314 0 0 0 0.5 0"/>
<feBlend mode="normal" in2="BackgroundImageFix" result="effect1_dropShadow"/>
<feBlend mode="normal" in="SourceGraphic" in2="effect1_dropShadow" result="shape"/>
</filter>
</defs>
</svg>
