<svg width="398" height="660" viewBox="0 0 398 660" fill="none" xmlns="http://www.w3.org/2000/svg">
<g filter="url(#filter0_d)">
<path d="M312.029 25.5073H155.932H111.078C98.5196 25.5073 88.3392 35.6877 88.3392 48.2459V53.8964C88.3392 63.3339 95.9898 70.9845 105.427 70.9845C114.865 70.9845 122.515 78.6351 122.515 88.0726V93.5389C122.515 104.507 113.624 113.398 102.657 113.398C91.689 113.398 82.798 122.289 82.798 133.256V150.539C82.798 159.061 75.8889 165.971 67.3661 165.971C58.8434 165.971 51.9343 172.88 51.9343 181.402V199.948C51.9343 205.761 56.6466 210.473 62.4595 210.473C68.2725 210.473 72.9848 215.186 72.9848 220.999V238.589C72.9848 246.316 66.7202 252.581 58.9924 252.581C51.2646 252.581 45 258.846 45 266.573V269.728C45 278.872 52.4133 286.286 61.558 286.286C70.7028 286.286 78.1161 293.699 78.1161 302.844V557C78.1161 589.032 104.084 615 136.116 615H296.433C328.465 615 354.433 589.032 354.433 557V487.632C354.433 482.589 358.521 478.5 363.565 478.5C368.609 478.5 372.698 474.411 372.698 469.367V454.484C372.698 444.106 364.285 435.693 353.907 435.693C343.529 435.693 335.116 427.28 335.116 416.902V402.938C335.116 397.604 339.44 393.28 344.774 393.28C350.108 393.28 354.433 388.956 354.433 383.621V185C364.52 185 372.698 176.822 372.698 166.735V161.605C372.698 148.697 362.233 138.233 349.325 138.233H344.982C334.472 138.233 325.953 129.713 325.953 119.203C325.953 108.694 334.472 100.174 344.982 100.174H347.226C358.975 100.174 368.5 90.6492 368.5 78.9V78.2415C368.5 66.1286 358.681 56.3092 346.568 56.3092H342.83C342.83 39.2978 329.04 25.5073 312.029 25.5073Z" fill="#FFF5F5"/>
</g>
<defs>
<filter id="filter0_d" x="0" y="0.507324" width="397.698" height="659.493" filterUnits="userSpaceOnUse" color-interpolation-filters="sRGB">
<feFlood flood-opacity="0" result="BackgroundImageFix"/>
<feColorMatrix in="SourceAlpha" type="matrix" values="0 0 0 0 0 0 0 0 0 0 0 0 0 0 0 0 0 0 127 0"/>
<feOffset dx="-10" dy="10"/>
<feGaussianBlur stdDeviation="17.5"/>
<feColorMatrix type="matrix" values="0 0 0 0 0.980392 0 0 0 0 0.337255 0 0 0 0 0.384314 0 0 0 0.5 0"/>
<feBlend mode="normal" in2="BackgroundImageFix" result="effect1_dropShadow"/>
<feBlend mode="normal" in="SourceGraphic" in2="effect1_dropShadow" result="shape"/>
</filter>
</defs>
</svg>
