<svg width="27" height="26" viewBox="0 0 27 26" fill="none" xmlns="http://www.w3.org/2000/svg">
<g clip-path="url(#clip0)">
<path d="M4.31068 25.5107L1.78289 22.2607C2.74586 21.3665 3.67442 19.9908 4.56859 18.1337C5.42836 16.3109 5.89265 14.0066 5.96144 11.2209L0.647955 10.5502V0.851704H10.9655L10.9655 5.443C10.9655 5.85574 10.9483 6.71552 10.9139 8.02244C10.8795 9.36375 10.8452 10.2579 10.8108 10.7049C10.7764 11.1865 10.7247 11.9947 10.6559 13.1297C10.5872 14.2646 10.4841 15.09 10.3465 15.6059C10.2089 16.1217 10.0369 16.844 9.83054 17.7725C9.62416 18.7011 9.36625 19.4406 9.05669 19.9908C8.71285 20.5411 8.3345 21.1774 7.92175 21.8996C7.47473 22.6218 6.9588 23.2581 6.37419 23.8083C5.75506 24.393 5.06727 24.9605 4.31068 25.5107ZM19.4775 25.5107L16.9497 22.2607C17.9127 21.3665 18.8413 19.9908 19.7355 18.1337C20.5953 16.3109 21.0595 14.0238 21.1283 11.2724L16.1243 10.5502L16.1243 0.851704H26.4419V5.443C26.4419 7.5409 26.4247 9.14012 26.3903 10.2407C26.3559 11.3412 26.2183 12.7513 25.9776 14.4709C25.7369 16.2249 25.3929 17.6522 24.9458 18.7527C24.4644 19.8533 23.7765 21.0226 22.8823 22.2607C21.9537 23.4988 20.8188 24.5822 19.4775 25.5107Z" fill="black"/>
</g>
<defs>
<clipPath id="clip0">
<rect width="27" height="25.8261" fill="white" transform="translate(27 25.8262) rotate(-180)"/>
</clipPath>
</defs>
</svg>
