<svg width="55" height="55" viewBox="0 0 55 55" fill="none" xmlns="http://www.w3.org/2000/svg">
<path d="M27.5 36.0938C32.2462 36.0938 36.0938 32.2462 36.0938 27.5C36.0938 22.7538 32.2462 18.9062 27.5 18.9062C22.7538 18.9062 18.9062 22.7538 18.9062 27.5C18.9062 32.2462 22.7538 36.0938 27.5 36.0938Z" stroke="#482625" stroke-width="2.5" stroke-linecap="round" stroke-linejoin="round"/>
<path d="M36.9531 7.73438H18.0469C12.3514 7.73438 7.73438 12.3514 7.73438 18.0469V36.9531C7.73438 42.6486 12.3514 47.2656 18.0469 47.2656H36.9531C42.6486 47.2656 47.2656 42.6486 47.2656 36.9531V18.0469C47.2656 12.3514 42.6486 7.73438 36.9531 7.73438Z" stroke="#482625" stroke-width="2.5" stroke-linecap="round" stroke-linejoin="round"/>
<path d="M38.6719 18.0469C39.6211 18.0469 40.3906 17.2774 40.3906 16.3281C40.3906 15.3789 39.6211 14.6094 38.6719 14.6094C37.7226 14.6094 36.9531 15.3789 36.9531 16.3281C36.9531 17.2774 37.7226 18.0469 38.6719 18.0469Z" fill="#482625"/>
</svg>
