<svg width="27" height="26" viewBox="0 0 27 26" fill="none" xmlns="http://www.w3.org/2000/svg">
<path d="M22.6893 0.31543L25.2171 3.56547C24.2541 4.45967 23.3256 5.83534 22.4314 7.6925C21.5716 9.51529 21.1074 11.8196 21.0386 14.6053L26.352 15.2759V24.9745H16.0345V20.3832C16.0345 19.9704 16.0517 19.1107 16.0861 17.8037C16.1205 16.4624 16.1548 15.5683 16.1892 15.1212C16.2236 14.6397 16.2753 13.8314 16.3441 12.6965C16.4128 11.5616 16.5159 10.7362 16.6535 10.2203C16.7911 9.70444 16.9631 8.98221 17.1695 8.05362C17.3758 7.12505 17.6337 6.38561 17.9433 5.83534C18.2871 5.28507 18.6655 4.64882 19.0782 3.92659C19.5253 3.20435 20.0412 2.5681 20.6258 2.01783C21.2449 1.43317 21.9327 0.865701 22.6893 0.31543ZM7.52248 0.31543L10.0503 3.56547C9.08732 4.45967 8.15874 5.83534 7.26455 7.6925C6.40474 9.51529 5.94045 11.8023 5.87166 14.5538L10.8757 15.2759V24.9745H0.558105V20.3832C0.558105 18.2853 0.575301 16.6861 0.609693 15.5855C0.644085 14.485 0.781654 13.0749 1.0224 11.3553C1.26314 9.60126 1.60706 8.174 2.05416 7.07345C2.53565 5.97291 3.22348 4.80359 4.11767 3.56547C5.04626 2.32736 6.18119 1.24401 7.52248 0.31543Z" fill="black"/>
</svg>
