<svg width="55" height="55" viewBox="0 0 55 55" fill="none" xmlns="http://www.w3.org/2000/svg">
<path d="M9.76009 38.0194C7.19757 33.6997 6.30015 28.593 7.23636 23.6584C8.17256 18.7237 10.878 14.3006 14.8446 11.2195C18.8112 8.13842 23.7661 6.61135 28.779 6.92504C33.7919 7.23873 38.5178 9.3716 42.0693 12.9231C45.6209 16.4747 47.7538 21.2006 48.0675 26.2134C48.3812 31.2263 46.8542 36.1813 43.7731 40.1479C40.6921 44.1145 36.2689 46.82 31.3343 47.7562C26.3997 48.6924 21.293 47.795 16.9732 45.2325L16.9733 45.2323L9.84977 47.2676C9.55505 47.3518 9.24317 47.3557 8.94646 47.2788C8.64974 47.2019 8.37898 47.0471 8.16224 46.8303C7.9455 46.6136 7.79067 46.3428 7.71378 46.0461C7.6369 45.7494 7.64076 45.4375 7.72497 45.1428L9.76025 38.0193L9.76009 38.0194Z" stroke="#482625" stroke-width="2.5" stroke-linecap="round" stroke-linejoin="round"/>
<path d="M32.6807 39.5312C30.4195 39.5344 28.1799 39.0914 26.0902 38.2276C24.0005 37.3638 22.1018 36.0961 20.5029 34.4971C18.9039 32.8982 17.6362 30.9995 16.7724 28.9098C15.9086 26.8201 15.4656 24.5805 15.4688 22.3193C15.4739 20.7277 16.1101 19.2031 17.2378 18.0799C18.3656 16.9568 19.8927 16.3268 21.4844 16.3281V16.3281C21.7454 16.3281 22.0019 16.3971 22.2277 16.5282C22.4534 16.6592 22.6406 16.8476 22.7701 17.0743L25.2819 21.4698C25.4333 21.7349 25.5115 22.0356 25.5082 22.3408C25.505 22.6461 25.4205 22.9451 25.2634 23.2069L23.2462 26.5688C24.284 28.8719 26.1281 30.716 28.4312 31.7538V31.7538L31.7931 29.7366C32.0549 29.5796 32.3539 29.495 32.6592 29.4918C32.9644 29.4886 33.2651 29.5667 33.5302 29.7182L37.9257 32.2299C38.1524 32.3594 38.3408 32.5466 38.4718 32.7723C38.6029 32.9981 38.6719 33.2546 38.6719 33.5156V33.5156C38.6673 35.1054 38.0354 36.6292 36.9135 37.7557C35.7916 38.8821 34.2705 39.5202 32.6807 39.5312V39.5312Z" stroke="#482625" stroke-width="2.5" stroke-linecap="round" stroke-linejoin="round"/>
</svg>
