<svg width="83" height="83" viewBox="0 0 83 83" fill="none" xmlns="http://www.w3.org/2000/svg">
<circle cx="41.5" cy="41.5" r="41.5" fill="#8FFEC9"/>
<path d="M19.1203 54.2881C15.7192 48.5545 14.528 41.7766 15.7706 35.227C17.0132 28.6774 20.6041 22.8067 25.8688 18.7172C31.1336 14.6278 37.7102 12.601 44.3636 13.0173C51.017 13.4337 57.2896 16.2646 62.0035 20.9784C66.7174 25.6923 69.5483 31.9649 69.9647 38.6183C70.3811 45.2717 68.3543 51.8483 64.2649 57.1131C60.1755 62.3779 54.3048 65.9688 47.7552 67.2114C41.2056 68.454 34.4276 67.2629 28.6941 63.8618L28.6942 63.8615L19.2394 66.5629C18.8482 66.6747 18.4342 66.6798 18.0404 66.5777C17.6466 66.4757 17.2872 66.2702 16.9995 65.9825C16.7119 65.6948 16.5064 65.3355 16.4043 64.9416C16.3023 64.5478 16.3074 64.1339 16.4192 63.7427L19.1205 54.2879L19.1203 54.2881Z" stroke="#482625" stroke-opacity="0.9" stroke-width="3" stroke-linecap="round" stroke-linejoin="round"/>
<path d="M49.5422 56.2949C46.541 56.2992 43.5684 55.7112 40.7948 54.5646C38.0212 53.4181 35.5011 51.7355 33.3789 49.6133C31.2567 47.4911 29.5741 44.971 28.4276 42.1974C27.281 39.4238 26.693 36.4512 26.6973 33.45C26.7041 31.3375 27.5485 29.3139 29.0453 27.8232C30.5421 26.3324 32.5691 25.4962 34.6816 25.498C35.0281 25.498 35.3685 25.5896 35.6682 25.7636C35.9679 25.9375 36.2163 26.1875 36.3882 26.4884L39.7219 32.3225C39.923 32.6743 40.0267 33.0734 40.0224 33.4786C40.0181 33.8838 39.9059 34.2805 39.6974 34.628L37.0201 39.0902C38.3975 42.147 40.8451 44.5947 43.9019 45.9721L48.3642 43.2948C48.7117 43.0863 49.1084 42.9741 49.5136 42.9698C49.9188 42.9655 50.3179 43.0692 50.6697 43.2703L56.5038 46.604C56.8046 46.7759 57.0547 47.0243 57.2286 47.324C57.4025 47.6237 57.4941 47.964 57.4941 48.3105C57.4881 50.4207 56.6494 52.4431 55.1603 53.9382C53.6713 55.4334 51.6523 56.2803 49.5422 56.2949Z" stroke="#482625" stroke-opacity="0.9" stroke-width="3" stroke-linecap="round" stroke-linejoin="round"/>
</svg>
